<?xml version="1.0" encoding="iso-8859-1"?>
<!-- Generator: Adobe Illustrator 19.0.0, SVG Export Plug-In . SVG Version: 6.00 Build 0)  -->
<svg version="1.1" id="Capa_1" xmlns="http://www.w3.org/2000/svg" xmlns:xlink="http://www.w3.org/1999/xlink" x="0px" y="0px"
	 viewBox="0 0 512 512" style="enable-background:new 0 0 512 512;" xml:space="preserve">
<g>
	<g>
		<path d="M0,0v512h512V0H0z M126,30h163v66H126V30z M333.371,126L223,155.574V126H333.371z M30,30h66v66H30V30z M30,126h163v37.612
			L83.325,193H30V126z M30,223h17.203l17.685,66H30V223z M30,319h42.927l17.953,67H30V319z M96,482H30v-66h66V482z M118.206,372.074
			l25.988-6.964l0.79-24.963l31.4-8.414l13.332,21.179l34.225-9.171l-75.468-106.206l-26.25,7.034l-10.05,104.992L78.865,225.253
			l307.165-82.305l7.734,28.862l-90.118,24.147l7.568,28.244l34.058-9.126l24.039,89.715l32.397-8.681l-24.039-89.715l23.663-6.34
			l31.804,118.693L126,401.044V401h-0.044L118.206,372.074z M144.014,317.258l0.37-42.479l21.062,36.737L144.014,317.258z M289,482
			H126v-49.898L186.093,416H289V482z M386,362.435V386h-87.946L386,362.435z M482,482H319v-66h163V482z M482,386h-66v-31.604
			l53.877-14.436L464.261,319H482V386z M482,289h-25.778l-17.685-66H482V289z M482,193h-51.501l-15.005-56H416v-11h66V193z M482,96
			H319V30h163V96z"/>
	</g>
</g>
<g>
	<g>
		<path d="M298.049,277.408c4.308-5.189,7.163-11.148,8.565-17.876c1.403-6.725,1.185-13.522-0.656-20.391
			c-1.335-4.984-3.66-9.673-6.975-14.068c-3.314-4.393-7.228-8.035-11.741-10.921c-4.513-2.887-9.525-4.866-15.036-5.943
			c-5.513-1.074-11.149-0.841-16.907,0.702l-54.161,14.512l31.607,117.959l32.397-8.68l-9.705-36.219l12.128-3.25l32.134,30.209
			l36.551-9.794L298.049,277.408z M272.98,257.95c-1.125,2.677-2.682,4.28-4.675,4.814l-20.435,5.475l-6.767-25.253l19.604-5.252
			c1.994-0.534,4.277,0.011,6.849,1.637c2.572,1.625,4.408,4.489,5.506,8.585C274.13,251.943,274.102,255.276,272.98,257.95z"/>
	</g>
</g>
<g>
</g>
<g>
</g>
<g>
</g>
<g>
</g>
<g>
</g>
<g>
</g>
<g>
</g>
<g>
</g>
<g>
</g>
<g>
</g>
<g>
</g>
<g>
</g>
<g>
</g>
<g>
</g>
<g>
</g>
</svg>
